# xmcd
#
# Track frame offsets: 
#        150
#        11137
#        22321
#        37901
#        53700
#        70139
#        89900
#        105350
#        125335
#        139521
#
# Disc length: 2157 seconds
#
# Revision: 0
# Processed by: cddbd v1.5.2PL0 Copyright (c) Steve Scherf et al.
# Submitted via: ExactAudioCopy v0.95b4
#
DISCID=84086b0a
DTITLE=Vibro Kings - 55
DYEAR=2004
DGENRE=Blues
TTITLE0=Take You Home
TTITLE1=55
TTITLE2=Big Man Cry
TTITLE3=Mama Say
TTITLE4=Buy Me
TTITLE5=The Blue Café
TTITLE6=Kinda Sad
TTITLE7=Ain't No Use
TTITLE8=Hard Times
TTITLE9=Next To Something
EXTD=
EXTT0=
EXTT1=
EXTT2=
EXTT3=
EXTT4=
EXTT5=
EXTT6=
EXTT7=
EXTT8=
EXTT9=
PLAYORDER=
